HIERARCHY
ROOT Hips
{
	OFFSET 0.000000 35.082581 0.000000
	CHANNELS 6 Xposition Yposition Zposition Xrotation Yrotation Zrotation 
	JOINT Spine
	{
		OFFSET 0.000000 6.876099 0.125700
		CHANNELS 3 Xrotation Yrotation Zrotation
		JOINT Spine1
		{
			OFFSET 0.000000 5.730043 0.104720
			CHANNELS 3 Xrotation Yrotation Zrotation
			JOINT Spine1_split
			{
				OFFSET 0.000000 5.730043 0.104720
				CHANNELS 3 Xrotation Yrotation Zrotation
				JOINT Spine2
				{
					OFFSET 0.000000 5.730043 0.104720
					CHANNELS 3 Xrotation Yrotation Zrotation
					JOINT Neck
					{
						OFFSET 0.000000 10.314075 0.188496
						CHANNELS 3 Xrotation Yrotation Zrotation
						JOINT Head
						{
							OFFSET 0.000000 7.643700 -2.377400
							CHANNELS 3 Xrotation Yrotation Zrotation
							JOINT HeadTop_End
							{
								OFFSET 0.000000 43.788605 -13.619600
								CHANNELS 3 Xrotation Yrotation Zrotation
								End Site
								{
									OFFSET 0.000000 0.000000 0.000000
								}
							}
						}
					}
					JOINT LeftShoulder
					{
						OFFSET 2.196100 4.412489 0.087492
						CHANNELS 3 Xrotation Yrotation Zrotation
						JOINT LeftShoulder_split
						{
							OFFSET 2.196100 4.412489 0.087492
							CHANNELS 3 Xrotation Yrotation Zrotation
							JOINT LeftArm
							{
								OFFSET 8.771219 -2.981674 -0.026999
								CHANNELS 3 Xrotation Yrotation Zrotation
								JOINT LeftForeArm
								{
									OFFSET 8.512804 0.000000 -0.000000
									CHANNELS 3 Xrotation Yrotation Zrotation
									JOINT LeftHand
									{
										OFFSET 18.484802 0.000000 -0.000000
										CHANNELS 3 Xrotation Yrotation Zrotation
										JOINT LeftHandThumb1
										{
											OFFSET 2.499420 -1.158070 2.653252
											CHANNELS 3 Xrotation Yrotation Zrotation
											JOINT LeftHandThumb2
											{
												OFFSET 2.370079 -1.368366 1.368366
												CHANNELS 3 Xrotation Yrotation Zrotation
												JOINT LeftHandThumb3
												{
													OFFSET 2.676727 -1.545410 1.545409
													CHANNELS 3 Xrotation Yrotation Zrotation
													JOINT LeftHandThumb4
													{
														OFFSET 1.692226 -0.977005 0.977007
														CHANNELS 3 Xrotation Yrotation Zrotation
														End Site
														{
															OFFSET 0.000000 0.000000 0.000000
														}
													}
												}
											}
										}
										JOINT LeftHandIndex1
										{
											OFFSET 7.924831 -0.457527 2.345128
											CHANNELS 3 Xrotation Yrotation Zrotation
											JOINT LeftHandIndex2
											{
												OFFSET 3.643303 0.000000 0.000000
												CHANNELS 3 Xrotation Yrotation Zrotation
												JOINT LeftHandIndex3
												{
													OFFSET 3.810799 0.000000 0.000000
													CHANNELS 3 Xrotation Yrotation Zrotation
													JOINT LeftHandIndex4
													{
														OFFSET 2.403702 0.000000 0.000000
														CHANNELS 3 Xrotation Yrotation Zrotation
														End Site
														{
															OFFSET 0.000000 0.000000 0.000000
														}
													}
												}
											}
										}
										JOINT LeftHandMiddle1
										{
											OFFSET 8.563995 0.000000 -0.000000
											CHANNELS 3 Xrotation Yrotation Zrotation
											JOINT LeftHandMiddle2
											{
												OFFSET 3.861618 0.000000 0.000000
												CHANNELS 3 Xrotation Yrotation Zrotation
												JOINT LeftHandMiddle3
												{
													OFFSET 3.701603 0.000000 0.000000
													CHANNELS 3 Xrotation Yrotation Zrotation
													JOINT LeftHandMiddle4
													{
														OFFSET 2.322544 0.000000 0.000000
														CHANNELS 3 Xrotation Yrotation Zrotation
														End Site
														{
															OFFSET 0.000000 0.000000 0.000000
														}
													}
												}
											}
										}
										JOINT LeftHandRing1
										{
											OFFSET 8.426460 -0.424637 -3.286992
											CHANNELS 3 Xrotation Yrotation Zrotation
											JOINT LeftHandRing2
											{
												OFFSET 3.126408 0.000000 0.000000
												CHANNELS 3 Xrotation Yrotation Zrotation
												JOINT LeftHandRing3
												{
													OFFSET 3.085026 0.000000 0.000000
													CHANNELS 3 Xrotation Yrotation Zrotation
													JOINT LeftHandRing4
													{
														OFFSET 1.644005 0.000000 0.000000
														CHANNELS 3 Xrotation Yrotation Zrotation
														End Site
														{
															OFFSET 0.000000 0.000000 0.000000
														}
													}
												}
											}
										}
									}
								}
							}
						}
					}
					JOINT RightShoulder
					{
						OFFSET -2.196100 4.412496 0.070690
						CHANNELS 3 Xrotation Yrotation Zrotation
						JOINT RightShoulder_split
						{
							OFFSET -2.196100 4.412496 0.070690
							CHANNELS 3 Xrotation Yrotation Zrotation
							JOINT RightArm
							{
								OFFSET -8.771282 -2.981682 -0.094208
								CHANNELS 3 Xrotation Yrotation Zrotation
								JOINT RightForeArm
								{
									OFFSET -8.494598 0.000000 0.000000
									CHANNELS 3 Xrotation Yrotation Zrotation
									JOINT RightHand
									{
										OFFSET -18.483803 0.000000 0.000001
										CHANNELS 3 Xrotation Yrotation Zrotation
										JOINT RightHandThumb1
										{
											OFFSET -2.527351 -1.008072 2.575253
											CHANNELS 3 Xrotation Yrotation Zrotation
											JOINT RightHandThumb2
											{
												OFFSET -2.321518 -1.340328 1.340329
												CHANNELS 3 Xrotation Yrotation Zrotation
												JOINT RightHandThumb3
												{
													OFFSET -2.657753 -1.534454 1.534455
													CHANNELS 3 Xrotation Yrotation Zrotation
													JOINT RightHandThumb4
													{
														OFFSET -1.807510 -1.043568 1.043567
														CHANNELS 3 Xrotation Yrotation Zrotation
														End Site
														{
															OFFSET 0.000000 0.000000 0.000000
														}
													}
												}
											}
										}
										JOINT RightHandIndex1
										{
											OFFSET -8.811420 0.015533 2.887987
											CHANNELS 3 Xrotation Yrotation Zrotation
											JOINT RightHandIndex2
											{
												OFFSET -3.537502 0.000000 0.000000
												CHANNELS 3 Xrotation Yrotation Zrotation
												JOINT RightHandIndex3
												{
													OFFSET -3.356201 0.000000 0.000000
													CHANNELS 3 Xrotation Yrotation Zrotation
													JOINT RightHandIndex4
													{
														OFFSET -1.933098 0.000000 0.000000
														CHANNELS 3 Xrotation Yrotation Zrotation
														End Site
														{
															OFFSET 0.000000 0.000000 0.000000
														}
													}
												}
											}
										}
										JOINT RightHandMiddle1
										{
											OFFSET -8.178135 0.000000 0.000000
											CHANNELS 3 Xrotation Yrotation Zrotation
											JOINT RightHandMiddle2
											{
												OFFSET -3.901302 0.000000 0.000000
												CHANNELS 3 Xrotation Yrotation Zrotation
												JOINT RightHandMiddle3
												{
													OFFSET -3.909599 0.000000 0.000000
													CHANNELS 3 Xrotation Yrotation Zrotation
													JOINT RightHandMiddle4
													{
														OFFSET -2.376003 0.000000 0.000000
														CHANNELS 3 Xrotation Yrotation Zrotation
														End Site
														{
															OFFSET 0.000000 0.000000 0.000000
														}
													}
												}
											}
										}
										JOINT RightHandRing1
										{
											OFFSET -7.559013 0.014137 -2.865403
											CHANNELS 3 Xrotation Yrotation Zrotation
											JOINT RightHandRing2
											{
												OFFSET -3.449306 0.000000 0.000000
												CHANNELS 3 Xrotation Yrotation Zrotation
												JOINT RightHandRing3
												{
													OFFSET -3.362106 0.000000 0.000000
													CHANNELS 3 Xrotation Yrotation Zrotation
													JOINT RightHandRing4
													{
														OFFSET -2.076401 0.000000 0.000000
														CHANNELS 3 Xrotation Yrotation Zrotation
														End Site
														{
															OFFSET 0.000000 0.000000 0.000000
														}
													}
												}
											}
										}
									}
								}
							}
						}
					}
				}
			}
		}
	}
	JOINT LeftUpLeg
	{
		OFFSET 10.205400 -3.823500 0.155100
		CHANNELS 3 Xrotation Yrotation Zrotation
		JOINT LeftLeg
		{
			OFFSET 0.708757 -12.982077 0.567790
			CHANNELS 3 Xrotation Yrotation Zrotation
			JOINT LeftFoot
			{
				OFFSET -0.708756 -10.717838 -2.184338
				CHANNELS 3 Xrotation Yrotation Zrotation
				JOINT LeftToeBase
				{
					OFFSET 0.108149 -7.191104 7.560241
					CHANNELS 3 Xrotation Yrotation Zrotation
					JOINT LeftToe_End
					{
						OFFSET 0.070230 0.081724 4.490308
						CHANNELS 3 Xrotation Yrotation Zrotation
						End Site
						{
							OFFSET 0.000000 0.000000 0.000000
						}
					}
				}
			}
		}
	}
	JOINT RightUpLeg
	{
		OFFSET -10.205400 -3.823500 0.005500
		CHANNELS 3 Xrotation Yrotation Zrotation
		JOINT RightLeg
		{
			OFFSET -0.708756 -12.982134 0.610632
			CHANNELS 3 Xrotation Yrotation Zrotation
			JOINT RightFoot
			{
				OFFSET 0.708754 -10.717769 -1.945823
				CHANNELS 3 Xrotation Yrotation Zrotation
				JOINT RightToeBase
				{
					OFFSET -0.108140 -7.191069 7.372968
					CHANNELS 3 Xrotation Yrotation Zrotation
					JOINT RightToe_End
					{
						OFFSET -0.070227 0.081735 4.479403
						CHANNELS 3 Xrotation Yrotation Zrotation
						End Site
						{
							OFFSET 0.000000 0.000000 0.000000
						}
					}
				}
			}
		}
	}
}
MOTION
Frames: 4
Frame Time: 0.016667
5.952944 11.825901 179.681152 48.493103 -48.869918 78.576456 10.267308 -5.405790 -0.353752 20.581455 -10.516353 -0.144616 0.000000 0.000000 0.000000 20.581457 -10.516336 -0.144631 6.882642 9.770579 -6.782370 -14.592945 28.209547 -15.856190 0.000000 -0.000001 -0.000001 0.362241 -5.563738 -21.430702 0.000000 0.000000 0.000000 0.286702 6.219479 -63.452034 -148.351763 -173.569095 -190.299343 39.822202 -0.729490 37.310649 -4.114268 -2.883215 2.590893 3.243715 8.782386 2.381191 -0.000006 0.000006 -0.000011 -0.000001 -0.000001 -0.000002 -1.241508 -9.199114 -7.937326 0.088621 0.738664 -16.880082 0.000005 0.000009 0.000007 0.000001 0.000001 0.000000 -1.135463 -2.096683 -22.025806 -0.352554 -1.388802 -20.431042 0.000001 0.000001 0.000006 0.000002 -0.000000 -0.000001 -0.604936 6.370759 -33.094299 -0.503182 -2.580171 -29.586095 -0.000004 0.000004 -0.000001 0.000002 0.000000 0.000001 -0.050560 24.927844 12.864316 0.000000 0.000000 0.000000 -31.840067 -0.829621 -5.819325 -379.939272 5.531940 357.334734 -23.422691 14.855846 -3.043166 -8.673402 4.254502 -11.634291 1.334063 -4.465155 -1.906680 0.000004 -0.000004 -0.000017 -0.000005 -0.000000 0.000001 -0.335823 9.317624 2.768379 0.227929 -1.535019 12.475405 0.000010 0.000004 -0.000007 -0.000000 -0.000001 -0.000002 -1.156261 -1.644402 1.983722 -0.068685 0.174104 10.971377 -0.000001 -0.000001 -0.000003 -0.000001 0.000000 0.000000 1.493768 -11.293060 7.517310 -0.170905 1.899005 13.176990 -0.000007 0.000003 -0.000000 0.000000 0.000001 0.000004 -65.039104 -8.286778 37.616037 23.736639 -13.483628 0.783084 5.924958 1.755384 -37.971873 1.360795 8.356195 -13.471502 -0.000000 0.000002 0.000003 -48.353966 -8.571402 -26.047867 136.363730 48.304471 5.644666 0.634484 2.573166 6.044375 4.841395 -0.773419 10.737535 -0.000001 0.000000 -0.000002 
6.120764 11.864079 182.413376 50.364647 -47.994384 77.013600 9.982342 -4.337149 -0.458633 20.001876 -8.523652 -0.281544 0.000000 0.000000 0.000000 20.001886 -8.523660 -0.281542 4.786791 10.382566 -5.045970 -15.958522 27.751245 -13.817712 -0.000000 -0.000003 0.000001 0.397070 -5.187144 -22.907372 0.000000 0.000000 0.000000 -0.202609 5.720618 -61.837609 -146.267012 -172.915487 -190.464592 42.708842 -0.958273 34.784425 -4.445392 -3.482519 2.728193 2.927691 8.062624 2.313116 -0.000007 0.000002 -0.000015 -0.000003 -0.000000 -0.000002 -1.336433 -9.878725 -7.883072 0.087923 0.739308 -16.878478 0.000007 0.000008 0.000008 0.000002 -0.000000 0.000002 -1.169750 -2.214616 -21.672122 -0.339398 -1.353842 -20.091321 0.000006 0.000002 0.000007 -0.000001 -0.000002 0.000000 -0.583586 6.403849 -32.534527 -0.486662 -2.550252 -29.022942 -0.000003 0.000007 0.000001 0.000001 0.000003 -0.000004 -0.236734 25.773721 13.779207 0.000000 0.000000 0.000000 -31.371424 -4.560765 -1.693848 -384.756768 7.161690 357.547508 -27.510943 12.091496 2.976892 -7.433058 2.682785 -10.818140 1.979902 -5.919498 -2.080319 0.000002 -0.000015 -0.000014 0.000001 -0.000000 -0.000000 -0.393908 9.214364 3.477799 0.148230 -1.237756 15.555655 0.000011 0.000002 -0.000004 -0.000001 0.000001 0.000002 -1.160010 -1.569468 2.937687 -0.161682 0.560290 15.420962 -0.000000 0.000002 -0.000000 -0.000000 -0.000001 -0.000002 1.457526 -10.868857 11.271576 -0.249404 2.199705 16.784292 -0.000007 0.000004 -0.000002 -0.000001 0.000001 0.000002 -70.411464 -10.475799 41.149325 27.128994 -14.138959 -0.566569 9.738241 0.379026 -41.768096 0.899429 8.095089 -12.833382 0.000000 0.000003 0.000000 -50.842634 -6.118146 -36.338502 132.438748 54.787659 6.901007 10.640391 3.530298 8.135460 6.403241 0.186097 10.626577 0.000001 -0.000003 -0.000000 
6.275473 11.938549 184.746567 51.103209 -47.464374 75.196462 9.629828 -3.409338 -0.783894 19.278004 -6.757570 -0.819784 0.000000 0.000000 0.000000 19.278004 -6.757577 -0.819776 2.631870 10.989362 -3.335735 -17.269373 27.297056 -11.811726 0.000001 0.000002 -0.000001 0.465105 -4.608224 -24.756057 0.000000 0.000000 0.000000 -0.485210 5.159808 -58.615393 -144.010796 -172.188249 -190.600254 45.765717 -1.440287 30.198776 -4.773367 -4.073352 2.858742 2.615700 7.353341 2.242187 -0.000008 0.000005 -0.000015 -0.000000 -0.000002 -0.000000 -1.428903 -10.548852 -7.827914 0.087326 0.740314 -16.874290 0.000005 0.000007 0.000007 0.000003 -0.000000 -0.000000 -1.201796 -2.331319 -21.321004 -0.326558 -1.319079 -19.753882 0.000004 0.000002 0.000005 -0.000000 0.000001 -0.000000 -0.562686 6.436994 -31.980305 -0.470584 -2.520373 -28.465291 -0.000004 0.000004 -0.000002 0.000002 -0.000000 -0.000002 -0.396541 26.079969 14.675700 0.000000 0.000000 0.000000 -30.053491 -9.716203 4.642512 -391.232525 11.814322 359.537961 -30.477906 10.402936 5.041876 -6.133055 1.047366 -9.912455 2.654152 -7.447390 -2.244911 0.000002 -0.000013 -0.000006 0.000005 0.000001 -0.000002 -0.450102 9.106278 4.214729 0.053986 -0.930989 18.768648 0.000010 -0.000001 -0.000004 0.000001 -0.000001 0.000001 -1.164881 -1.492384 3.920517 -0.288210 0.955475 20.070740 -0.000001 0.000000 -0.000001 -0.000000 -0.000001 0.000001 1.386761 -10.440765 15.187364 -0.353052 2.507103 20.550982 -0.000006 0.000003 -0.000001 0.000000 0.000000 -0.000001 -77.680827 -13.662427 42.776621 37.001430 -15.110610 -2.651924 11.165145 -0.123614 -38.886992 0.652594 7.864873 -12.358802 0.000001 0.000000 -0.000003 -52.941537 -5.863915 -41.983779 129.095848 57.280596 7.165141 17.208236 4.166675 11.911809 7.692882 1.043308 10.845715 0.000000 -0.000001 0.000000 
6.472271 11.915094 186.889481 50.123097 -47.572319 72.836010 9.293357 -2.564295 -1.330625 18.588298 -5.258762 -1.680249 0.000000 0.000000 0.000000 18.588314 -5.258757 -1.680254 0.571264 11.532751 -1.744116 -18.427323 26.870552 -9.953107 -0.000001 -0.000000 -0.000001 0.565324 -3.855087 -26.469835 0.000000 0.000000 0.000000 -0.378012 4.638993 -53.992379 -141.899543 -171.460862 -190.722979 48.339977 -2.166206 23.977635 -5.095731 -4.651574 2.981473 2.310036 6.659726 2.169117 -0.000003 0.000003 -0.000015 -0.000003 -0.000002 -0.000004 -1.518669 -11.204954 -7.773431 0.086783 0.741570 -16.868774 0.000006 0.000004 0.000008 -0.000001 -0.000000 0.000000 -1.231403 -2.446051 -20.976313 -0.314212 -1.284950 -19.422584 0.000003 -0.000000 0.000005 0.000001 -0.000001 -0.000000 -0.542370 6.469917 -31.436998 -0.455121 -2.490900 -27.918712 -0.000006 0.000004 -0.000002 0.000001 -0.000000 -0.000001 -0.494392 25.605350 15.379824 0.000000 0.000000 0.000000 -27.617726 -15.476811 13.095672 -397.951300 18.998076 362.816097 -31.421510 9.986921 3.015502 -4.886153 -0.502104 -8.999053 3.296533 -8.910284 -2.385464 0.000002 -0.000010 -0.000016 0.000001 0.000003 0.000002 -0.500780 9.004454 4.908672 -0.045895 -0.643387 21.813391 0.000010 0.000000 -0.000005 0.000000 0.000000 -0.000001 -1.170238 -1.421040 4.831205 -0.435737 1.321408 24.491218 -0.000000 0.000001 -0.000004 -0.000001 -0.000001 0.000001 1.289296 -10.051213 18.899813 -0.471393 2.791361 24.127242 -0.000006 0.000002 -0.000002 0.000000 0.000000 -0.000000 -85.047064 -16.089274 42.689321 47.112340 -15.757190 -4.805176 12.846660 -0.794603 -34.863693 0.477615 7.517220 -11.745845 -0.000000 0.000001 0.000001 -52.082446 -6.780164 -47.688388 126.087983 59.254630 7.615349 21.573711 4.796043 14.308755 7.317641 0.523534 12.423677 -0.000001 -0.000000 -0.000002 
